HIERARCHY
ROOT Hips
{
	OFFSET 0.000000 0.000000 0.000000
	CHANNELS 6 Xposition Yposition Zposition Zrotation Yrotation Xrotation 
	JOINT LHipJoint
	{
		OFFSET 0.000000 0.000000 0.000000
		CHANNELS 3 Zrotation Yrotation Xrotation
		JOINT LeftUpLeg
		{
			OFFSET 1.363060 -1.794630 0.839290
			CHANNELS 3 Zrotation Yrotation Xrotation
			JOINT LeftLeg
			{
				OFFSET 2.448110 -6.726130 0.000000
				CHANNELS 3 Zrotation Yrotation Xrotation
				JOINT LeftFoot
				{
					OFFSET 2.562200 -7.039590 0.000000
					CHANNELS 3 Zrotation Yrotation Xrotation
					JOINT LeftToeBase
					{
						OFFSET 0.157640 -0.433110 2.322550
						CHANNELS 3 Zrotation Yrotation Xrotation
						End Site
						{
							OFFSET 0.000000 0.000000 0.000000
						}
					}
				}
			}
		}
	}
	JOINT RHipJoint
	{
		OFFSET 0.000000 0.000000 0.000000
		CHANNELS 3 Zrotation Yrotation Xrotation
		JOINT RightUpLeg
		{
			OFFSET -1.305520 -1.794630 0.839290
			CHANNELS 3 Zrotation Yrotation Xrotation
			JOINT RightLeg
			{
				OFFSET -2.542530 -6.985550 0.000000
				CHANNELS 3 Zrotation Yrotation Xrotation
				JOINT RightFoot
				{
					OFFSET -2.568260 -7.056230 0.000000
					CHANNELS 3 Zrotation Yrotation Xrotation
					JOINT RightToeBase
					{
						OFFSET -0.164730 -0.452590 2.363150
						CHANNELS 3 Zrotation Yrotation Xrotation
						End Site
						{
							OFFSET 0.000000 0.000000 0.000000
						}
					}
				}
			}
		}
	}
}
MOTION
Frames: 22
Frame Time: 0.008333
3.165553 15.792630 0.447807 -5.170840 -87.497325 45.533468 -9.009175 -1.815981 -1.315606 -15.547141 5.910817 -74.665476 -2.517775 4.723369 52.534497 2.710890 9.191247 -16.743668 -1.158400 0.000001 -43.227400 8.273955 0.494738 -1.990563 17.621821 -9.608932 -73.416641 3.653993 -6.354676 52.547172 -0.486705 2.224514 -14.970695 0.072499 0.000000 -65.321100
3.160532 15.811992 0.453022 -9.000955 -87.757883 49.182860 -8.999276 -1.844581 -1.379808 -15.508440 6.211649 -74.291492 -2.528029 4.683776 52.315063 2.740516 9.366396 -16.735506 -1.175700 0.000000 -43.174401 8.295184 0.455981 -1.961577 17.568865 -9.481760 -72.960935 3.683234 -6.283916 52.105028 -0.454315 2.328106 -14.776902 0.062400 0.000000 -65.364100
3.155004 15.833353 0.458952 -14.180154 -87.990160 54.170294 -8.978322 -1.872132 -1.444978 -15.471420 6.529343 -73.889881 -2.541185 4.636949 52.061127 2.767463 9.530987 -16.716760 -1.190400 -0.000000 -43.116800 8.328729 0.411333 -1.923978 17.518019 -9.352031 -72.470256 3.716892 -6.208570 51.610532 -0.421015 2.431227 -14.564888 0.052700 -0.000001 -65.415400
3.148859 15.856691 0.465544 -21.324063 -88.174629 61.111997 -8.937485 -1.893355 -1.511254 -15.432999 6.864920 -73.462809 -2.557249 4.582300 51.771668 2.791633 9.683536 -16.686991 -1.202400 -0.000000 -43.052600 8.383341 0.365606 -1.876427 17.472151 -9.215986 -71.943022 3.754399 -6.128544 51.062929 -0.387194 2.530996 -14.333636 0.043400 -0.000000 -65.472299
3.142179 15.882077 0.472866 -31.302482 -88.286571 70.876943 -8.865834 -1.894739 -1.578388 -15.385977 7.224125 -73.014267 -2.576585 4.521466 51.445452 2.813644 9.825505 -16.646312 -1.211299 -0.000000 -42.981700 8.469771 0.332614 -1.819258 17.435624 -9.066097 -71.372266 3.794139 -6.041162 50.461151 -0.353065 2.624548 -14.080231 0.034901 0.000000 -65.536000
3.135003 15.909519 0.480871 -45.032719 -88.299064 84.381139 -8.757945 -1.850152 -1.643874 -15.323868 7.622685 -72.552935 -2.601449 4.461293 51.078318 2.834505 9.959828 -16.595743 -1.216999 -0.000000 -42.904500 8.593306 0.338263 -1.754994 17.413191 -8.885571 -70.746568 3.832192 -5.938772 49.808314 -0.318309 2.711682 -13.800238 0.027300 -0.000000 -65.606900
3.127287 15.938995 0.489539 -62.518031 -88.191353 101.628436 -8.634785 -1.733873 -1.701003 -15.250818 8.077980 -72.086250 -2.636293 4.414085 50.660716 2.855538 10.092698 -16.537923 -1.219300 0.000000 -42.821701 8.733184 0.408198 -1.690304 17.398725 -8.656310 -70.057945 3.862502 -5.809346 49.114685 -0.282228 2.795935 -13.488263 0.020600 0.000001 -65.684900
3.118991 15.970407 0.498848 -81.475629 -87.961323 120.338060 -8.548924 -1.560727 -1.743462 -15.192489 8.583928 -71.604293 -2.684669 4.386679 50.181462 2.876626 10.228776 -16.472455 -1.218101 0.000000 -42.733600 8.837555 0.528532 -1.631927 17.365469 -8.384374 -69.318560 3.881340 -5.647994 48.393446 -0.244728 2.881369 -13.143355 0.014900 -0.000001 -65.767799
3.119554 16.011089 0.487432 -134.061414 -87.041786 172.387490 -8.706930 -1.129424 -2.080211 -15.960336 10.275440 -70.676442 -2.937238 4.551138 49.398779 2.854062 10.230587 -16.564556 -1.252701 -0.000000 -42.500000 8.704044 0.974487 -1.540151 16.425819 -7.376139 -68.185981 3.702143 -5.279195 47.803865 -0.204516 2.943821 -12.658829 0.010200 0.000000 -65.941800
3.110382 16.046149 0.497977 -139.200395 -86.670172 177.261010 -8.777338 -1.116863 -2.126851 -16.009629 10.703992 -70.052769 -2.989865 4.489876 48.811645 2.864375 10.348236 -16.454513 -1.243701 0.000000 -42.415000 8.656305 0.931056 -1.471337 16.269357 -7.195520 -67.465620 3.726007 -5.131437 47.008474 -0.170259 3.013482 -12.280088 0.006200 -0.000000 -66.036100
3.100708 16.082840 0.509140 -142.889845 -86.269180 -179.324547 -8.829662 -1.094994 -2.173976 -16.057584 11.146700 -69.403970 -3.044571 4.421335 48.185814 2.872201 10.457824 -16.328281 -1.230500 -0.000000 -42.335200 8.627622 0.891532 -1.394211 16.111399 -7.005941 -66.710821 3.749983 -4.978532 46.163662 -0.136391 3.073565 -11.876382 0.003100 0.000000 -66.140500
3.090393 16.120967 0.520757 -145.723118 -85.842803 -176.775107 -8.871494 -1.062234 -2.219295 -16.110305 11.604228 -68.734561 -3.102270 4.347818 47.521332 2.877592 10.559561 -16.186084 -1.213100 0.000000 -42.259700 8.610488 0.856304 -1.308805 15.949982 -6.807739 -65.927978 3.773269 -4.819434 45.274336 -0.102185 3.128629 -11.449259 0.000800 0.000001 -66.247600
3.079257 16.160285 0.532836 -147.998326 -85.392520 -174.789261 -8.907273 -1.019131 -2.261546 -16.169883 12.076320 -68.047725 -3.162904 4.270273 46.820172 2.880844 10.655090 -16.027689 -1.191400 0.000000 -42.191200 8.600647 0.823886 -1.214739 15.785223 -6.600711 -65.120681 3.795957 -4.653875 44.341146 -0.066985 3.182214 -10.998581 -0.000700 -0.000000 -66.359000
3.067227 16.200606 0.545237 -149.915046 -84.919913 -173.165285 -8.939787 -0.966381 -2.299417 -16.239362 12.560999 -67.347829 -3.226352 4.189123 46.084034 2.882323 10.745954 -15.853365 -1.165600 0.000000 -42.129900 8.595237 0.792715 -1.111234 15.617216 -6.385687 -64.295489 3.818304 -4.482357 43.366209 -0.030068 3.238396 -10.525363 -0.001500 -0.000001 -66.472000
3.054499 16.241791 0.558035 -151.561403 -84.423725 -171.815594 -8.970415 -0.905828 -2.333134 -16.316075 13.057845 -66.635985 -3.291592 4.104597 45.316428 2.882788 10.836549 -15.662655 -1.135600 -0.000000 -42.080400 8.592709 0.761775 -0.999154 15.447442 -6.163224 -63.451873 3.840700 -4.305020 42.347688 0.009181 3.299741 -10.027538 -0.001200 0.000000 -66.593601
3.040723 16.283582 0.570948 -153.060909 -83.906039 -170.611186 -9.000676 -0.837191 -2.360300 -16.406657 13.560452 -65.918661 -3.358615 4.016475 44.518223 2.882958 10.929123 -15.456807 -1.101900 -0.000000 -42.035300 8.591578 0.729598 -0.876287 15.273906 -5.935044 -62.603115 3.863584 -4.123289 41.291376 0.051705 3.372040 -9.508422 0.000400 0.000000 -66.713400
3.026113 16.325860 0.584042 -154.432767 -83.365366 -169.532171 -9.030981 -0.762370 -2.381787 -16.506907 14.066865 -65.194611 -3.426131 3.924613 43.692438 2.883945 11.029888 -15.235820 -1.064800 0.000001 -41.997500 8.591378 0.695927 -0.744466 15.097539 -5.702518 -61.747628 3.887333 -3.937507 40.195950 0.098051 3.457327 -8.965255 0.003800 0.000000 -66.839100
3.010919 16.368461 0.597240 -155.715959 -82.801704 -168.539546 -9.061622 -0.682716 -2.397767 -16.615677 14.572010 -64.464381 -3.493066 3.828765 42.841235 2.886969 11.144856 -15.000701 -1.024600 -0.000000 -41.964001 8.591583 0.660939 -0.604897 14.917371 -5.467488 -60.889456 3.912104 -3.748607 39.064086 0.148802 3.558653 -8.397757 0.009500 -0.000000 -66.971000
2.994908 16.411207 0.610309 -156.959496 -82.216781 -167.578440 -9.092981 -0.598580 -2.407111 -16.736421 15.066554 -63.731273 -3.558786 3.728319 41.964898 2.893394 11.279778 -14.752773 -0.981700 0.000000 -41.926500 8.591837 0.624643 -0.457215 14.729430 -5.231360 -60.039239 3.937893 -3.558043 37.902502 0.204300 3.678666 -7.808269 0.018300 -0.000000 -67.103200
2.978440 16.453922 0.623234 -158.168414 -81.610730 -166.643093 -9.124884 -0.511690 -2.411268 -16.866088 15.545021 -62.992822 -3.621961 3.623017 41.065503 2.904655 11.442175 -14.493134 -0.936400 -0.000000 -41.882900 8.592218 0.588203 -0.304115 14.531705 -4.995979 -59.198694 3.964505 -3.366708 36.714520 0.264612 3.817942 -7.195929 0.030800 -0.000001 -67.238500
2.961649 16.496435 0.635995 -159.346905 -80.984946 -165.726479 -9.157087 -0.423358 -2.410779 -17.002406 15.999743 -62.249847 -3.681447 3.512795 40.145709 2.921916 11.637436 -14.223440 -0.888900 -0.000000 -41.827700 8.592863 0.552633 -0.147954 14.323245 -4.763105 -58.372389 3.991831 -3.175746 35.505903 0.329656 3.977124 -6.562216 0.047799 -0.000000 -67.376200
2.944762 16.538531 0.648506 -160.499908 -80.340971 -164.820628 -9.189255 -0.334945 -2.406934 -17.143767 16.423898 -61.502691 -3.736199 3.397831 39.208759 2.946300 11.871006 -13.945295 -0.839100 -0.000000 -41.757000 8.594031 0.519425 0.008794 14.101340 -4.533507 -57.565084 4.019335 -2.986320 34.283719 0.398939 4.155133 -5.909260 0.070200 0.000000 -67.515600
